P3
4 4
255
255 255 255
255 255 255
255 255 255
240 255 240
255 255 255
255 240 248
255 255 255
255 255 255
255 255 255
255 255 255
255 240 248
255 255 255
240 255 240
255 255 255
255 255 255
255 255 255
